<mxfile host="Electron" agent="Mozilla/5.0 (Windows NT 10.0; Win64; x64) AppleWebKit/537.36 (KHTML, like Gecko) draw.io/24.7.17 Chrome/128.0.6613.36 Electron/32.0.1 Safari/537.36" version="24.7.17">
  <diagram name="Page-1" id="ghqaWLkP3lLn0gdrlNRL">
    <mxGraphModel dx="1823" dy="866" grid="1" gridSize="10" guides="1" tooltips="1" connect="1" arrows="1" fold="1" page="1" pageScale="1" pageWidth="827" pageHeight="1169" math="0" shadow="0">
      <root>
        <mxCell id="0" />
        <mxCell id="1" parent="0" />
        <mxCell id="MpLv2R9p7zCuel1Wel2K-36" value="" style="edgeStyle=none;orthogonalLoop=1;jettySize=auto;html=1;rounded=0;entryX=0;entryY=0.5;entryDx=0;entryDy=0;entryPerimeter=0;" edge="1" parent="1" target="MpLv2R9p7zCuel1Wel2K-35">
          <mxGeometry width="100" relative="1" as="geometry">
            <mxPoint x="520" y="1230" as="sourcePoint" />
            <mxPoint x="620" y="1230" as="targetPoint" />
            <Array as="points" />
          </mxGeometry>
        </mxCell>
        <mxCell id="MpLv2R9p7zCuel1Wel2K-3" value="" style="edgeStyle=orthogonalEdgeStyle;rounded=0;orthogonalLoop=1;jettySize=auto;html=1;" edge="1" parent="1" source="MpLv2R9p7zCuel1Wel2K-1" target="MpLv2R9p7zCuel1Wel2K-2">
          <mxGeometry relative="1" as="geometry" />
        </mxCell>
        <mxCell id="MpLv2R9p7zCuel1Wel2K-1" value="Start" style="strokeWidth=2;html=1;shape=mxgraph.flowchart.start_1;whiteSpace=wrap;" vertex="1" parent="1">
          <mxGeometry x="246" y="70" width="100" height="60" as="geometry" />
        </mxCell>
        <mxCell id="MpLv2R9p7zCuel1Wel2K-7" value="" style="edgeStyle=orthogonalEdgeStyle;rounded=0;orthogonalLoop=1;jettySize=auto;html=1;" edge="1" parent="1" source="MpLv2R9p7zCuel1Wel2K-2" target="MpLv2R9p7zCuel1Wel2K-6">
          <mxGeometry relative="1" as="geometry" />
        </mxCell>
        <mxCell id="MpLv2R9p7zCuel1Wel2K-2" value="bil, i : &lt;b&gt;int&lt;/b&gt;&lt;div&gt;bil_prima = true : &lt;b&gt;bool&lt;/b&gt;&lt;/div&gt;" style="shape=hexagon;perimeter=hexagonPerimeter2;whiteSpace=wrap;html=1;fixedSize=1;strokeWidth=2;" vertex="1" parent="1">
          <mxGeometry x="228.5" y="170" width="135" height="90" as="geometry" />
        </mxCell>
        <mxCell id="MpLv2R9p7zCuel1Wel2K-9" value="" style="edgeStyle=orthogonalEdgeStyle;rounded=0;orthogonalLoop=1;jettySize=auto;html=1;" edge="1" parent="1" source="MpLv2R9p7zCuel1Wel2K-6" target="MpLv2R9p7zCuel1Wel2K-8">
          <mxGeometry relative="1" as="geometry" />
        </mxCell>
        <mxCell id="MpLv2R9p7zCuel1Wel2K-6" value="Masukan bilangan :&lt;div&gt;cin &amp;gt;&amp;gt; bil&lt;/div&gt;" style="shape=parallelogram;perimeter=parallelogramPerimeter;whiteSpace=wrap;html=1;fixedSize=1;strokeWidth=2;" vertex="1" parent="1">
          <mxGeometry x="225.5" y="308" width="140" height="75" as="geometry" />
        </mxCell>
        <mxCell id="MpLv2R9p7zCuel1Wel2K-11" value="" style="edgeStyle=orthogonalEdgeStyle;rounded=0;orthogonalLoop=1;jettySize=auto;html=1;" edge="1" parent="1" source="MpLv2R9p7zCuel1Wel2K-8" target="MpLv2R9p7zCuel1Wel2K-10">
          <mxGeometry relative="1" as="geometry" />
        </mxCell>
        <mxCell id="MpLv2R9p7zCuel1Wel2K-42" value="False" style="edgeLabel;html=1;align=center;verticalAlign=middle;resizable=0;points=[];" vertex="1" connectable="0" parent="MpLv2R9p7zCuel1Wel2K-11">
          <mxGeometry x="-0.7125" relative="1" as="geometry">
            <mxPoint as="offset" />
          </mxGeometry>
        </mxCell>
        <mxCell id="MpLv2R9p7zCuel1Wel2K-13" value="" style="edgeStyle=orthogonalEdgeStyle;rounded=0;orthogonalLoop=1;jettySize=auto;html=1;" edge="1" parent="1" source="MpLv2R9p7zCuel1Wel2K-8" target="MpLv2R9p7zCuel1Wel2K-12">
          <mxGeometry relative="1" as="geometry" />
        </mxCell>
        <mxCell id="MpLv2R9p7zCuel1Wel2K-43" value="True" style="edgeLabel;html=1;align=center;verticalAlign=middle;resizable=0;points=[];" vertex="1" connectable="0" parent="MpLv2R9p7zCuel1Wel2K-13">
          <mxGeometry x="-0.4357" relative="1" as="geometry">
            <mxPoint as="offset" />
          </mxGeometry>
        </mxCell>
        <mxCell id="MpLv2R9p7zCuel1Wel2K-8" value="bil &amp;lt;= 1" style="rhombus;whiteSpace=wrap;html=1;strokeWidth=2;" vertex="1" parent="1">
          <mxGeometry x="242.25" y="430.5" width="105.75" height="109.5" as="geometry" />
        </mxCell>
        <mxCell id="MpLv2R9p7zCuel1Wel2K-10" value="cout &amp;lt;&amp;lt; &quot;bukan bilangan prima&quot;" style="whiteSpace=wrap;html=1;strokeWidth=2;" vertex="1" parent="1">
          <mxGeometry x="609.995" y="455.25" width="120" height="60" as="geometry" />
        </mxCell>
        <mxCell id="MpLv2R9p7zCuel1Wel2K-15" value="" style="edgeStyle=orthogonalEdgeStyle;rounded=0;orthogonalLoop=1;jettySize=auto;html=1;" edge="1" parent="1" source="MpLv2R9p7zCuel1Wel2K-12" target="MpLv2R9p7zCuel1Wel2K-14">
          <mxGeometry relative="1" as="geometry" />
        </mxCell>
        <mxCell id="MpLv2R9p7zCuel1Wel2K-12" value="i = 2" style="whiteSpace=wrap;html=1;strokeWidth=2;" vertex="1" parent="1">
          <mxGeometry x="235.125" y="596" width="120" height="60" as="geometry" />
        </mxCell>
        <mxCell id="MpLv2R9p7zCuel1Wel2K-17" value="" style="edgeStyle=orthogonalEdgeStyle;rounded=0;orthogonalLoop=1;jettySize=auto;html=1;" edge="1" parent="1" source="MpLv2R9p7zCuel1Wel2K-14" target="MpLv2R9p7zCuel1Wel2K-16">
          <mxGeometry relative="1" as="geometry" />
        </mxCell>
        <mxCell id="MpLv2R9p7zCuel1Wel2K-44" value="True" style="edgeLabel;html=1;align=center;verticalAlign=middle;resizable=0;points=[];" vertex="1" connectable="0" parent="MpLv2R9p7zCuel1Wel2K-17">
          <mxGeometry x="-0.2749" relative="1" as="geometry">
            <mxPoint as="offset" />
          </mxGeometry>
        </mxCell>
        <mxCell id="MpLv2R9p7zCuel1Wel2K-20" value="" style="edgeStyle=orthogonalEdgeStyle;rounded=0;orthogonalLoop=1;jettySize=auto;html=1;" edge="1" parent="1" source="MpLv2R9p7zCuel1Wel2K-14" target="MpLv2R9p7zCuel1Wel2K-19">
          <mxGeometry relative="1" as="geometry" />
        </mxCell>
        <mxCell id="MpLv2R9p7zCuel1Wel2K-45" value="False" style="edgeLabel;html=1;align=center;verticalAlign=middle;resizable=0;points=[];" vertex="1" connectable="0" parent="MpLv2R9p7zCuel1Wel2K-20">
          <mxGeometry x="-0.4193" y="-4" relative="1" as="geometry">
            <mxPoint as="offset" />
          </mxGeometry>
        </mxCell>
        <mxCell id="MpLv2R9p7zCuel1Wel2K-14" value="i * i &amp;lt;= bil" style="rhombus;whiteSpace=wrap;html=1;strokeWidth=2;" vertex="1" parent="1">
          <mxGeometry x="240.25" y="704" width="110.87" height="115" as="geometry" />
        </mxCell>
        <mxCell id="MpLv2R9p7zCuel1Wel2K-18" style="edgeStyle=orthogonalEdgeStyle;rounded=0;orthogonalLoop=1;jettySize=auto;html=1;" edge="1" parent="1" source="MpLv2R9p7zCuel1Wel2K-16">
          <mxGeometry relative="1" as="geometry">
            <mxPoint x="236" y="760" as="targetPoint" />
            <Array as="points">
              <mxPoint x="126" y="910" />
              <mxPoint x="126" y="760" />
            </Array>
          </mxGeometry>
        </mxCell>
        <mxCell id="MpLv2R9p7zCuel1Wel2K-16" value="i++" style="whiteSpace=wrap;html=1;strokeWidth=2;" vertex="1" parent="1">
          <mxGeometry x="236.005" y="880" width="120" height="60" as="geometry" />
        </mxCell>
        <mxCell id="MpLv2R9p7zCuel1Wel2K-22" value="" style="edgeStyle=orthogonalEdgeStyle;rounded=0;orthogonalLoop=1;jettySize=auto;html=1;" edge="1" parent="1" source="MpLv2R9p7zCuel1Wel2K-19" target="MpLv2R9p7zCuel1Wel2K-21">
          <mxGeometry relative="1" as="geometry" />
        </mxCell>
        <mxCell id="MpLv2R9p7zCuel1Wel2K-23" value="True" style="edgeLabel;html=1;align=center;verticalAlign=middle;resizable=0;points=[];" vertex="1" connectable="0" parent="MpLv2R9p7zCuel1Wel2K-22">
          <mxGeometry x="-0.6301" y="1" relative="1" as="geometry">
            <mxPoint as="offset" />
          </mxGeometry>
        </mxCell>
        <mxCell id="MpLv2R9p7zCuel1Wel2K-25" value="" style="edgeStyle=orthogonalEdgeStyle;rounded=0;orthogonalLoop=1;jettySize=auto;html=1;" edge="1" parent="1" source="MpLv2R9p7zCuel1Wel2K-19" target="MpLv2R9p7zCuel1Wel2K-24">
          <mxGeometry relative="1" as="geometry" />
        </mxCell>
        <mxCell id="MpLv2R9p7zCuel1Wel2K-26" value="False" style="edgeLabel;html=1;align=center;verticalAlign=middle;resizable=0;points=[];" vertex="1" connectable="0" parent="MpLv2R9p7zCuel1Wel2K-25">
          <mxGeometry x="-0.5693" y="-2" relative="1" as="geometry">
            <mxPoint as="offset" />
          </mxGeometry>
        </mxCell>
        <mxCell id="MpLv2R9p7zCuel1Wel2K-19" value="bil % i == 0" style="rhombus;whiteSpace=wrap;html=1;strokeWidth=2;" vertex="1" parent="1">
          <mxGeometry x="431.1200000000001" y="704" width="110.87" height="115" as="geometry" />
        </mxCell>
        <mxCell id="MpLv2R9p7zCuel1Wel2K-40" style="edgeStyle=orthogonalEdgeStyle;rounded=0;orthogonalLoop=1;jettySize=auto;html=1;" edge="1" parent="1" source="MpLv2R9p7zCuel1Wel2K-21">
          <mxGeometry relative="1" as="geometry">
            <mxPoint x="677" y="1030" as="targetPoint" />
          </mxGeometry>
        </mxCell>
        <mxCell id="MpLv2R9p7zCuel1Wel2K-21" value="bil_prima = false" style="whiteSpace=wrap;html=1;strokeWidth=2;" vertex="1" parent="1">
          <mxGeometry x="617.4250000000002" y="731.5" width="120" height="60" as="geometry" />
        </mxCell>
        <mxCell id="MpLv2R9p7zCuel1Wel2K-28" value="" style="edgeStyle=orthogonalEdgeStyle;rounded=0;orthogonalLoop=1;jettySize=auto;html=1;" edge="1" parent="1" source="MpLv2R9p7zCuel1Wel2K-24" target="MpLv2R9p7zCuel1Wel2K-27">
          <mxGeometry relative="1" as="geometry" />
        </mxCell>
        <mxCell id="MpLv2R9p7zCuel1Wel2K-24" value="bil_prima = true" style="whiteSpace=wrap;html=1;strokeWidth=2;" vertex="1" parent="1">
          <mxGeometry x="426.5550000000001" y="890" width="120" height="60" as="geometry" />
        </mxCell>
        <mxCell id="MpLv2R9p7zCuel1Wel2K-30" value="" style="edgeStyle=orthogonalEdgeStyle;rounded=0;orthogonalLoop=1;jettySize=auto;html=1;" edge="1" parent="1" source="MpLv2R9p7zCuel1Wel2K-27" target="MpLv2R9p7zCuel1Wel2K-29">
          <mxGeometry relative="1" as="geometry" />
        </mxCell>
        <mxCell id="MpLv2R9p7zCuel1Wel2K-34" value="True" style="edgeLabel;html=1;align=center;verticalAlign=middle;resizable=0;points=[];" vertex="1" connectable="0" parent="MpLv2R9p7zCuel1Wel2K-30">
          <mxGeometry x="-0.7357" y="3" relative="1" as="geometry">
            <mxPoint as="offset" />
          </mxGeometry>
        </mxCell>
        <mxCell id="MpLv2R9p7zCuel1Wel2K-32" value="" style="edgeStyle=orthogonalEdgeStyle;rounded=0;orthogonalLoop=1;jettySize=auto;html=1;" edge="1" parent="1" source="MpLv2R9p7zCuel1Wel2K-27" target="MpLv2R9p7zCuel1Wel2K-31">
          <mxGeometry relative="1" as="geometry" />
        </mxCell>
        <mxCell id="MpLv2R9p7zCuel1Wel2K-33" value="False" style="edgeLabel;html=1;align=center;verticalAlign=middle;resizable=0;points=[];" vertex="1" connectable="0" parent="MpLv2R9p7zCuel1Wel2K-32">
          <mxGeometry x="-0.4763" y="-1" relative="1" as="geometry">
            <mxPoint as="offset" />
          </mxGeometry>
        </mxCell>
        <mxCell id="MpLv2R9p7zCuel1Wel2K-27" value="bil_prima = True" style="rhombus;whiteSpace=wrap;html=1;strokeWidth=2;" vertex="1" parent="1">
          <mxGeometry x="425.56" y="996" width="123.44" height="130" as="geometry" />
        </mxCell>
        <mxCell id="MpLv2R9p7zCuel1Wel2K-29" value="cout &amp;lt;&amp;lt; bil &amp;lt;&amp;lt; &quot;bilangan prima&quot;" style="whiteSpace=wrap;html=1;strokeWidth=2;" vertex="1" parent="1">
          <mxGeometry x="426.55999999999995" y="1200" width="120" height="60" as="geometry" />
        </mxCell>
        <mxCell id="MpLv2R9p7zCuel1Wel2K-41" style="edgeStyle=orthogonalEdgeStyle;rounded=0;orthogonalLoop=1;jettySize=auto;html=1;" edge="1" parent="1" source="MpLv2R9p7zCuel1Wel2K-31">
          <mxGeometry relative="1" as="geometry">
            <mxPoint x="880" y="1061" as="targetPoint" />
          </mxGeometry>
        </mxCell>
        <mxCell id="MpLv2R9p7zCuel1Wel2K-31" value="cout &amp;lt;&amp;lt; bil &amp;lt;&amp;lt; &quot;bukan bilangan prima&quot;" style="whiteSpace=wrap;html=1;strokeWidth=2;" vertex="1" parent="1">
          <mxGeometry x="630.72" y="1031" width="120" height="60" as="geometry" />
        </mxCell>
        <mxCell id="MpLv2R9p7zCuel1Wel2K-35" value="End" style="strokeWidth=2;html=1;shape=mxgraph.flowchart.start_1;whiteSpace=wrap;" vertex="1" parent="1">
          <mxGeometry x="827" y="1200" width="100" height="60" as="geometry" />
        </mxCell>
        <mxCell id="MpLv2R9p7zCuel1Wel2K-38" style="edgeStyle=orthogonalEdgeStyle;rounded=0;orthogonalLoop=1;jettySize=auto;html=1;entryX=0.5;entryY=0;entryDx=0;entryDy=0;entryPerimeter=0;" edge="1" parent="1" source="MpLv2R9p7zCuel1Wel2K-10" target="MpLv2R9p7zCuel1Wel2K-35">
          <mxGeometry relative="1" as="geometry" />
        </mxCell>
      </root>
    </mxGraphModel>
  </diagram>
</mxfile>
